<svg fill="currentColor" width="130pt" height="130pt" version="1.0" viewBox="0 0 130 130" xmlns="http://www.w3.org/2000/svg">
 <g transform="translate(0 130) scale(.1 -.1)">
  <path d="m70 650v-630h518 518l134 136v198 199l-46 49-46 50 92 94v200 200l-136 134h-517-517v-630zm928 248 3-148h-130-129l-33 98c-17 53-34 101-37 106s-21-37-41-95l-36-104-142-3-143-3v144c0 79 3 147 7 150 4 4 158 6 342 5l336-3 3-147zm-576-224c57-37 106-70 111-73 6-6-18-98-57-218-4-13-3-23 2-23s48 29 95 65c48 36 90 65 95 65s48-30 96-66 90-63 93-60-5 38-16 78c-12 40-24 81-27 91-5 15 4 17 91 17h96l-3-147-3-148h-340-340l-3 243c-1 133 0 242 2 242 3 0 51-30 108-66z"/>
 </g>
</svg>
