<svg width="260pt" height="260pt" version="1.1" viewBox="0 0 260 260" xmlns="http://www.w3.org/2000/svg">
 <g display="none">
  <rect x="-.033146" y="8.8818e-16" width="260" height="260" fill="#e0e0e0" style="paint-order:fill markers stroke"/>
  <path transform="scale(.75)" d="m114.75 170.03c-1.1122-1.0365-1.6821-1.5283-2.3234-2.0052-1.6515-1.2281-3.3633-2.0051-5.2244-2.3712-1.1812-0.23237-1.2945-0.23943-4.046-0.25217l-2.5988-0.012-1.0905-1.9063c-2.0554-3.5932-3.2266-5.8045-4.3232-8.1627-3.5192-7.5677-5.6926-15.182-6.552-22.955-0.48262-4.3649-0.57546-9.4746-0.24597-13.537 0.44718-5.5133 1.7085-10.14 4.1759-15.318 2.4075-5.0524 5.3804-9.0908 9.3372-12.683l0.42303-0.38411 36.202 8.93e-4 -0.80153 0.3051c-5.3968 2.0543-10.027 4.4634-13.871 7.2171-2.7626 1.979-5.3287 4.2882-7.3985 6.6578-2.85 3.2628-4.793 6.662-6.1086 10.687-0.74851 2.2899-1.018 3.612-1.2346 6.056-0.0756 0.85364-0.10429 4.6558-0.0448 5.9461 0.26067 5.654 1.1551 10.349 2.2576 11.851 0.3309 0.45077 0.78727 0.74088 1.4734 0.93659 0.45152 0.1288 1.3095 0.13801 1.7493 0.0188 0.52586-0.1426 0.92553-0.37032 1.2956-0.73822 0.5802-0.5768 0.77024-1.1166 0.76897-2.1842-8.4e-4 -0.71021-0.0689-1.239-0.31254-2.4268-0.0854-0.41635-0.23313-1.1377-0.32833-1.603-0.26583-1.2994-0.43802-2.6131-0.58657-4.4752-0.0752-0.94282-0.0755-4.7396-4e-4 -5.6997 0.13462-1.7216 0.36959-3.3469 0.65344-4.5197 0.58714-2.426 1.9344-5.3776 3.4755-7.6145 4.3928-6.3758 12.014-11.27 23.867-15.326 2.1524-0.73654 3.9683-1.2964 7.1247-2.1967 3.2593-0.92963 5.2139-1.5343 5.7088-1.7661 0.3279-0.15359 0.56257-0.46557 0.72303-0.96121l0.0541-0.16698h46.257c45.328 0 46.258 0.0017 46.318 0.08426 0.0336 0.04635 0.29319 0.37196 0.57685 0.7236 3.0128 3.7347 5.3846 8.1712 6.7153 12.561 0.42297 1.3954 0.63267 2.3477 0.85083 3.8637 0.78074 5.4256 0.75061 13.51-0.0705 18.925-0.46554 3.0698-1.9814 9.5296-2.8975 12.348l-0.24312 0.74791-0.16441-0.099c-1.7147-1.0329-2.714-1.8313-3.3524-2.6785-0.50205-0.66627-0.8761-1.5601-1.0476-2.5032-0.10086-0.55475-0.11171-2.1934-0.0268-4.0522 0.13809-3.0247 0.18809-7.8357 0.0972-9.3511-0.12449-2.0754-0.47492-3.2503-1.7532-5.8779-1.2854-2.6421-2.2759-3.8279-3.4608-4.1433-0.2873-0.0765-0.89912-0.0839-1.1879-0.0144-0.30618 0.0737-0.88139 0.35022-1.2591 0.60534-1.3776 0.93051-1.6374 1.8731-0.99451 3.6084 0.0884 0.23856 0.42748 0.9848 0.75354 1.6583 0.32605 0.6735 0.67472 1.445 0.77482 1.7144 1.2224 3.2901 1.3919 7.6899 0.44501 11.555-0.57039 2.3285-1.7496 5.0054-3.4818 7.9039-2.0311 3.3986-4.3573 6.1709-5.8299 6.9479-0.28368 0.14967-1.0836 0.36745-1.1405 0.31051-0.0447-0.0447 0.12259-0.5906 0.51058-1.6658 1.5071-4.1767 2.4921-9.3365 2.3292-12.201-0.16048-2.8209-1.068-5.9803-2.2368-7.7871-0.1663-0.25706-1.0536-1.3483-1.6869-2.0746l-0.1503-0.17237-1.3348 0.92517c-0.73414 0.50884-1.5085 1.0628-1.7208 1.231-0.76211 0.6038-1.3096 1.296-1.4218 1.7976-0.0431 0.19263-0.0387 0.29823 0.0259 0.62384 0.0921 0.4641 0.0722 0.86678-0.0905 1.8351-0.38691 2.3026-1.4411 5.4652-2.6231 7.8697-1.2467 2.536-2.7497 4.6266-4.7862 6.6575-3.3314 3.3222-7.4311 5.5711-11.959 6.56-0.8116 0.17726-1.6002 0.31295-1.6746 0.28815-0.0277-9e-3 0.13808-0.24645 0.36847-0.52712 6.0536-7.3747 10.109-13.768 12.536-19.763 2.3724-5.8598 3.0801-11.206 2.1256-16.059-0.1573-0.79974-0.51659-2.2068-0.80388-3.1483-0.67423-2.2094-1.544-4.0133-2.4003-4.9783-0.73117-0.82394-1.4638-1.2324-2.2971-1.2808-0.7096-0.0412-1.3592 0.18561-2.1473 0.74962-0.64038 0.45831-0.9755 0.90523-1.0927 1.4573-0.1631 0.76807 0.0531 1.5498 1.0457 3.7809 0.82468 1.8537 1.1669 2.9107 1.4603 4.5105 0.21561 1.1757 0.26872 1.8322 0.27018 3.3397 2e-3 2.0993-0.20849 3.6705-0.73551 5.4898-0.81199 2.8029-3.0566 7.8493-4.7352 10.645-0.28021 0.46679-0.31832 0.51272-0.33012 0.3979-7e-3 -0.0714 0.0292-0.66955 0.0812-1.3292 0.13672-1.7354 0.163-3.0129 0.0718-3.4927-0.14767-0.77728-0.45928-1.178-1.3966-1.796-0.64842-0.42753-0.91246-0.56847-1.2558-0.67035-0.60285-0.17886-1.1067-0.043-2.0069 0.54101-0.55053 0.35719-0.88454 0.71733-1.1323 1.2208-0.32832 0.66731-0.44871 1.283-0.60356 3.0869-0.11412 1.3293-0.19265 1.9212-0.36037 2.7163-0.77915 3.6935-2.8546 6.7468-6.3866 9.3956-1.1122 0.83412-2.9442 2.021-3.6069 2.3368-0.97553 0.46493-1.4348 0.5019-4.1412 0.33334-2.9353-0.1828-5.1756-0.0525-7.7099 0.44836-2.9666 0.58632-5.9226 1.6863-8.4319 3.1375-0.61236 0.35416-1.9658 1.2501-2.6272 1.7392-0.75028 0.55478-1.4493 0.83661-2.5303 1.0202-0.7056 0.11984-1.5876 0.20029-3.9264 0.35815-1.0898 0.0736-2.4779 0.17513-3.0846 0.22571-0.60669 0.0506-1.1374 0.0854-1.1793 0.0773-0.0542-0.0104 0.14916-0.24618 0.70353-0.81573 1.3485-1.3854 1.932-2.0378 2.8377-3.1726 4.1553-5.2066 6.4631-11.123 6.8649-17.6 0.231-3.7237-0.13003-7.5043-1.1184-11.711-0.62902-2.6774-1.1286-3.9411-1.787-4.5205-0.51232-0.45079-1.0559-0.60769-2.1013-0.6065-0.80015 9e-4 -1.2495 0.0782-1.7011 0.29267-1.1007 0.52272-1.4188 1.6243-1.0616 3.6765 0.11099 0.63775 0.15791 0.85295 0.50968 2.3378 0.57414 2.4234 0.8488 5.0516 0.84927 8.1266 5.3e-4 3.4328-0.35514 6.1902-1.0631 8.242-0.41358 1.1986-1.1688 2.7998-1.9407 4.1148-2.7597 4.7014-7.467 9.2681-13.983 13.565-1.9064 1.2572-4.876 3.0597-4.876 2.9597 0-0.0142 0.24867-0.542 0.5526-1.1729 0.98891-2.0529 1.6645-3.7464 2.5006-6.268 1.6577-4.9995 2.9074-10.587 3.4457-15.407 0.12351-1.1057 0.45381-4.529 0.43813-4.5408-0.0664-0.0499-4.5181-1.0251-5.1183-1.1211l-0.4745-0.076-0.292 0.19025-0.29201 0.19025-0.52967 1.0311c-1.7253 3.3586-4.8713 8.7794-6.5683 11.317-1.1666 1.7447-3.1132 4.1815-5.2618 6.5868-0.39205 0.43887-0.76711 0.85967-0.83346 0.93511-0.0664 0.0754-0.12146 0.1234-0.12246 0.10658-9.9e-4 -0.0168 0.28004-0.67807 0.62452-1.4695 1.1727-2.6942 1.6562-4.0352 2.1086-5.849 0.42674-1.7109 0.6137-3.4172 0.51702-4.7184-0.13861-1.8655-0.69515-3.2558-1.7048-4.2588-1.2068-1.1988-2.3466-1.4369-3.4841-0.7278-0.92699 0.57782-1.3898 1.3271-1.4974 2.4241-0.0495 0.50522-0.0239 1.0506 0.11618 2.4734 0.31024 3.1505-0.52549 5.604-5.0435 14.806-0.36675 0.74697-1.3004 2.6383-2.0747 4.203l-1.4079 2.8448 1.39 1.43c2.2251 2.2891 2.4993 2.5654 2.5461 2.5654 0.0622 0 3.556-1.8696 4.1232-2.2064 2.3666-1.4053 5.7191-4.2182 8.6115-7.2255 1.5916-1.6549 2.7216-2.9579 4.0521-4.6727 0.3848-0.49595 0.71001-0.90172 0.72268-0.90172 0.0392 0-0.0237 0.16594-0.47259 1.2474-1.1131 2.6814-1.888 4.3605-6.0987 13.216-0.44611 0.93818-0.80148 1.7297-0.78972 1.7589 0.0545 0.13533 1.5351 2.0967 1.8225 2.4143 0.60366 0.667 1.1886 1.1228 1.5925 1.2407l0.20038 0.0585 0.0152 0.3072c0.0182 0.36906-0.0816 1.6208-0.12934 1.6208-0.1957 0-17.52 0.44593-18.031 0.46414l-0.6902 0.0246zm57.777-21.055c1.2012-0.24078 3.5132-1.1448 5.4781-2.1421 4.0501-2.0556 7.2126-5.4 9.5753-10.126 1.3752-2.7507 2.2543-5.2487 3.2516-9.2398 0.80707-3.2297 0.90482-4.1702 0.52761-5.0762-0.47049-1.1302-1.3727-1.8655-2.5726-2.0968-1.1781-0.22709-2.3235 0.26521-2.7543 1.1838-0.29738 0.63414-0.79539 2.3334-1.1941 4.0744-0.70762 3.09-1.6958 5.841-3.0628 8.527-0.76048 1.4942-1.6514 2.8996-2.3571 3.7185-1.1838 1.3736-3.2362 2.883-5.2667 3.8735-0.76319 0.37227-1.3108 0.58379-2.0852 0.80541-1.4439 0.41326-2.3804 0.9332-3.2361 1.7967-0.68503 0.6913-0.97608 1.2527-0.97849 1.8873-2e-3 0.45945 0.14135 0.72192 0.86474 1.5862 1.0204 1.2192 2.1069 1.5694 3.81 1.228z" fill="#d6d6d6" stroke="#424242" stroke-linecap="square" stroke-width=".059372" style="paint-order:fill markers stroke"/>
 </g>
 <g>
  <g transform="translate(39.621 3.9141)" >
   <g fill="none"  stroke-linecap="round" stroke-linejoin="bevel" stroke-width="3.333">
    <path d="m62.095 118.61c4.292 4.6232-1.2931 15.311-8.3333 24.667-2.0651-8.4124-10.92-31.507-24.333-15.333-5.6179 12.472 9.3367 30.445 21.5 37.833 0.58826 16.003-0.31618 28.767-3 37.667 25.237 15.444 51.762 14.352 72.333 5-0.0681-2.3028-0.24445-4.3854 0.5-8.3333"/>
    <path d="m63.928 178.94c8.7931 14.278 22.172 18.909 35.333 24 26.192 4.9028 61.206-29.415 46.667-67 4.1042-11.421 3.1132-22.63 2-33.833"/>
    <path d="m34.428 122.44c-21.339-33.32-9.9736-71.964 33-69.333"/>
    <path d="m51.762 52.777c5.1879-8.0323 12.812-9.6894 22-7.5 26.426-16.222 47.296-6.7418 66.667 9.6667 17.562 10.285 19.454 27.845 12.167 49.667-2.5306-2.3256-5.9847-2.1883-7.3333-7.6667"/>
    <path d="m143.43 81.61c6.1062 8.8835 0.0935 24.633-15 31 5.627-9.2694 8.6969-19.06 4.3333-23.333 1.7942 3.5056-3.4493 22.75-23.167 21.167 11.52-12.999 18.328-24.321 12.333-34.5"/>
    <path d="m115.1 93.276c0.69368 10.133-9.0648 20.162-40.833 20.167"/>
    <path d="m101.76 88.61c-1.4662 8.9293-5.1052 15.386-13 17"/>
    <path d="m83.762 84.276c6.0815 20.025-8.1319 28.333-23.167 36.167 4.7667-8.3269 8.2128-16.843 8.3333-25.833-5.6111 11.444-11.778 18.667-18.5 21.667 2.8163-6.6376 8.4401-14.895 6-18.5"/>
    <path d="m45.595 98.943c-5.6395-20.491 7.6012-30.804 30.333-36"/>
    <path d="m99.762 47.276c11.328-2.6262 19.687 2.1715 27.5 8.3334"/>
    <circle cx="138.76" cy="125.11" r="18.058"/>
    <circle cx="100.1" cy="125.94" r="18.058"/>
   </g>
   <ellipse cx="136.1" cy="127.11" rx="2.0417" ry="5.375" fill-rule="evenodd"  stroke-linecap="round" stroke-linejoin="bevel" stroke-width="3.333"/>
   <ellipse cx="100.1" cy="126.94" rx="2.0417" ry="5.375" fill-rule="evenodd"  stroke-linecap="round" stroke-linejoin="bevel" stroke-width="3.333"/>
   <g fill="none"  stroke-linecap="round" stroke-linejoin="bevel" stroke-width="3.333">
    <path d="m81.428 126.11-33.667 0.33333"/>
    <path d="m99.762 173.23c5.5688 1.8342 10.621 2.123 16.167 1.0468"/>
    <path d="m114.76 151.61c2.1921 0.55271 3.8783 1.747 8.3333 2.1667 5.0306 0.0293 11.144-0.95326 11.667-6-1.4435-9.2623-13.046-7.1434-19.5-6.5"/>
    <path d="m62.512 198.78c-0.0078 3.0811 1.8068 7.3642 5.1667 12.667"/>
    <path d="m47.262 146.28c0.47007-5.4081-0.76951-17.859-11.5-16"/>
   </g>
   <g>
    <ellipse transform="rotate(-31.008)" cx="-36.301" cy="144.37" rx="3.0833" ry="7.4167" fill-rule="evenodd"  stroke-linecap="round" stroke-linejoin="bevel" stroke-width="3.333"/>
    <circle cx="47.762" cy="156.05" r="1.375" fill-rule="evenodd"  stroke-linecap="round" stroke-linejoin="bevel" stroke-width="3.333"/>
    <path d="m99.598 40.263c-0.52375 0.01515-0.88366 0.03494-1.4062 0.06445-0.4851 0.03111-1.2035 0.08932-1.779 0.15669-4.8114 0.52405-9.4879 1.9747-13.863 4.0227-2.3974 1.0715-4.7409 2.2654-7.001 3.6011-1.6216 0.87103-3.4587 0.13767-5.1526-0.04609-2.5024-0.32917-5.0732-0.27024-7.5308 0.33252-0.17648 0.04874-0.7048 0.18367-1.0117 0.28855-0.93929 0.30089-1.8524 0.69213-2.7017 1.1953 2.7678-0.02535 5.5396-0.22037 8.3057-0.07031 1.0746 0.03901 2.0756 0.582 2.7041 1.4517 0.74376 0.75774 0.90064 1.9659 0.35303 2.8799-0.38781 0.73907-0.81214 1.4592-1.2158 2.1899-4.8104 0.08783-9.6559-0.05538-14.415 0.7779-6.4315 1.0432-12.779 3.5455-17.627 7.9927-0.61894 0.56646-1.1701 1.1213-1.702 1.6942-3.3637 3.6553-5.6616 8.2074-7.0058 12.967-1.2435 4.7014-1.2191 9.6292-0.85241 14.445 0.3539 3.9859 1.1962 7.9239 2.452 11.722 0.26288 0.77878 0.59725 1.7357 0.92397 2.571 1.4079 3.7173 3.2938 7.2267 5.3016 10.649 2.2639-0.0718 4.6246-0.0969 6.7264 0.87527 1.686 0.71617 3.0734 1.9471 4.3786 3.2028 4.1797-0.10694 8.3594-0.21387 12.539-0.32079-1.1199-0.84327-1.8014-2.1027-2.6602-3.1831 1.0697-2.2602 2.1523-4.5144 3.2183-6.7764-2.3473 2.3193-4.8878 4.5173-7.883 5.9583-0.66126 0.35253-1.3226 0.7048-1.9841 1.0568-1.3127-1.3505-2.6228-2.7034-3.9331-4.0562 1.9222-3.9788 4.0157-7.881 5.7143-11.963 0.65525-1.5727 1.142-3.2859 0.8395-5.0005-0.15452-1.2641-0.1117-2.7489 0.93368-3.6449 0.89043-0.95466 2.4306-1.2376 3.5428-0.50404 1.8152 1.0691 2.5665 3.2799 2.4805 5.2962-0.01585 1.1242-0.2084 2.24-0.49272 3.3258 1.9153-2.595 3.4577-5.442 5.0318-8.2503 0.51701-0.94726 0.99797-1.9132 1.4838-2.8767 0.81382-0.16815 1.6292-0.06639 2.4258 0.13769 1.2705 0.27997 2.537 0.57776 3.8057 0.86573-0.30328 3.3673-0.62634 6.7435-1.4023 10.041-0.66962 3.001-1.5263 5.9674-2.6802 8.8199 2.7037-1.7153 5.2943-3.6385 7.5542-5.915 0.19413-0.19414 0.59348-0.61505 0.85694-0.90381 1.9585-2.2011 3.6731-4.7498 4.3733-7.6455 0.62857-3.2037 0.56464-6.5305 0.0094-9.7402-0.28227-1.6767-1.0518-3.4115-0.51797-5.1143 0.39908-1.2264 1.7575-1.7778 2.9629-1.7197 1.2193-0.09445 2.4706 0.54354 2.9704 1.6858 0.7298 1.6223 1.0309 3.4004 1.3756 5.1354 0.95614 5.2878 0.48878 10.921-1.8942 15.784 0.32447-0.32561 0.82369-0.75273 1.2924-1.0147 1.1417-0.69984 2.5228-0.79752 3.6578-1.5206 1.7542-0.95668 3.3482-2.3036 4.2665-4.109 0.62708-1.0945 1.143-2.2493 1.5986-3.4245 0.09397-0.2607 0.29198-0.79273 0.41308-1.1616 0.70286-1.9641 0.8506-4.1121 1.7856-5.9912 0.93144-1.474 3.1347-1.5518 4.4443-0.54785 1.1349 0.80315 1.6759 2.2886 1.3678 3.6405-0.88692 4.4798-2.2502 9.0071-5.0138 12.713-0.66288 0.88257-1.4051 1.7054-2.2222 2.4478 1.9355-0.25594 3.8813-0.0321 5.82 0.01 1.0608-0.0437 1.8648-0.85798 2.7389-1.3658 2.3869-1.5867 4.4692-3.8933 5.0788-6.7658 0.45445-1.6953 0.0821-3.6118 1.0414-5.1584 0.65248-0.84531 1.6634-1.5457 2.7612-1.5601 1.0185 0.09188 1.9074 0.73963 2.6309 1.4194 0.28291 0.31196 0.47589 0.70124 0.57276 1.1104 1.1945-2.6199 2.3746-5.3656 2.3394-8.3013 0.0421-2.157-0.53558-4.2807-1.5-6.1992-0.51797-1.1539-1.0283-2.624-0.18604-3.7573 0.92101-1.2093 2.6662-1.9705 4.1192-1.2686 1.7334 0.84775 2.5198 2.7703 3.1345 4.4834 1.0111 2.901 1.4334 6.0245 0.99688 9.0779-0.7427 5.5577-3.4264 10.632-6.4968 15.241-1.0863 1.6075-2.2349 3.1725-3.4367 4.6954 5.2262-1.5961 9.5045-5.8245 11.306-10.967 0.52146-1.5006 1.0691-3.0405 1.1265-4.6411-0.37923-1.2466 0.67053-2.3195 1.587-3.0002 0.95268-0.68142 1.9239-1.3368 2.8837-2.0081 1.0328 1.2708 2.2677 2.4423 2.8089 4.0308 1.0232 2.5739 1.3394 5.4287 0.8101 8.1545-0.24954 1.599-0.61554 3.1803-1.0892 4.7277 2.0921-2.433 3.7443-5.2603 4.8187-8.2848 0.92271-2.9763 1.0074-6.2901-0.0861-9.2325-0.5711-1.4358-1.6929-2.8736-1.321-4.5037 0.34702-1.2575 1.5998-2.0999 2.8228-2.3672 1.4815-0.2878 2.7732 0.81807 3.4878 2.0098 0.89218 1.5073 1.7049 3.1019 2.1203 4.8122 0.40296 2.1316 0.2091 4.3179 0.2112 6.4736 0.0152 1.6474-0.22461 3.296-0.0932 4.9403 0.0933 1.2042 0.9362 2.1748 1.9233 2.7905 0.84415-3.0639 1.6071-6.1625 2.0522-9.312 0.46889-4.3405 0.49897-8.7458-0.0688-13.078-0.50775-3.497-2.0198-6.7859-3.9348-9.729-0.91934-1.3951-2.0648-2.8175-3.1551-3.9525-1.6924-1.8381-3.7286-3.2946-5.7491-4.7418-4.219-3.1058-8.2641-6.4585-12.704-9.2554-3.2849-2.1086-6.7142-4.0059-10.312-5.5278-0.30819-0.12101-0.73135-0.30594-1.0695-0.43508-5.115-2.0409-10.609-3.2065-16.131-3.0512zm8.0684 3.271c2.1922-0.0077 4.432 0.06148 6.5068 0.85033 5.1453 1.7136 9.9448 4.4306 14.144 7.8539 1.1406 0.97753 2.3963 2.2605 2.2345 3.8881-0.17399 1.5656-1.7086 2.8441-3.2927 2.6098-2.0668-0.31547-3.732-1.7107-5.3953-2.872-3.1411-2.19-6.5485-4.0832-10.234-5.1768-2.7837-0.82369-5.7202-0.52863-8.5804-0.52235-2.0456 0.05023-4.091 0.11295-6.1364 0.17176-0.05539-1.3564-0.3583-2.7179-0.19482-4.0737 0.19973-1.2926 1.4019-2.1543 2.6299-2.3571 2.4592-0.46643 4.982-0.31986 7.4725-0.37059 0.28193-4.44e-4 0.56386-9.37e-4 0.8458-0.0014zm-31.436 16.257c1.2712-0.05183 2.5895 0.75664 2.8472 2.0546 0.23399 1.1501 0.18067 2.5242-0.62548 3.4433-0.65601 0.61124-1.6167 0.69982-2.4314 1.0086-4.1661 1.2065-8.3656 2.3679-12.359 4.096-4.6618 1.9945-9.269 4.6258-12.39 8.7261-1.9376 2.5755-3.1936 5.6898-3.3675 8.9226-0.24904 3.0797-0.02664 6.1965 0.69446 9.2022 0.28766 1.3658 0.43219 3.0375-0.66824 4.0954-1.4739 1.4798-4.4289 1.0969-5.2427-0.90963-0.93232-2.1209-1.1428-4.4703-1.387-6.7502-0.22975-3.0698-0.34362-6.1971 0.25863-9.2325 0.9067-4.0136 2.852-7.7817 5.6327-10.818 4.4725-5.0114 10.49-8.3663 16.741-10.644 3.4086-1.2192 6.8829-2.2875 10.432-3.0142 0.61686-0.10521 1.2392-0.19028 1.8662-0.18018zm9.063 45.551c-0.92178 1.5828-2.008 3.0694-3.2329 4.4312 1.4893-0.15497 3.0239-0.068 4.4663-0.53613 0.33924-0.1497 0.7385-0.43224 0.95215-0.6416-0.95275-0.50824-1.7453-1.3781-2.1445-2.3789-0.10319-0.28628-0.06922-0.61192-0.04108-0.87449z" stroke="none" style="paint-order:fill markers stroke"/>
    <path d="m56.2 129.58c-1.4278 0.0103-2.8558 0.017-4.2832 0.0527 1.0808 2.0768 2.054 4.209 2.9312 6.3794 1.3593-2.0538 2.553-4.2133 3.6079-6.438-0.75195 2e-3 -1.5039 4e-3 -2.2559 6e-3z"  stroke-linecap="square" style="paint-order:fill markers stroke"/>
   </g>
  </g>
 </g>
</svg>
