<svg width="136.21pt" height="181.74pt" version="1.1" viewBox="0 0 136.21 181.74" xmlns="http://www.w3.org/2000/svg">
 <g transform="translate(-61.893 -39.13)">
  <g transform="translate(39.621 3.9141)">
   <g fill="none" stroke-linecap="round" stroke-linejoin="bevel" stroke-width="3.333">
    <path d="m62.095 118.61c4.292 4.6232-1.2931 15.311-8.3333 24.667-2.0651-8.4124-10.92-31.507-24.333-15.333-5.6179 12.472 9.3367 30.445 21.5 37.833 0.58826 16.003-0.31618 28.767-3 37.667 25.237 15.444 51.762 14.352 72.333 5-0.0681-2.3028-0.24445-4.3854 0.5-8.3333"/>
    <path d="m63.928 178.94c8.7931 14.278 22.172 18.909 35.333 24 26.192 4.9028 61.206-29.415 46.667-67 4.1042-11.421 3.1132-22.63 2-33.833"/>
    <path d="m34.428 122.44c-21.339-33.32-9.9736-71.964 33-69.333"/>
    <path d="m51.762 52.777c5.1879-8.0323 12.812-9.6894 22-7.5 26.426-16.222 47.296-6.7418 66.667 9.6667 17.562 10.285 19.454 27.845 12.167 49.667-2.5306-2.3256-5.9847-2.1883-7.3333-7.6667"/>
    <path d="m143.43 81.61c6.1062 8.8835 0.0935 24.633-15 31 5.627-9.2694 8.6969-19.06 4.3333-23.333 1.7942 3.5056-3.4493 22.75-23.167 21.167 11.52-12.999 18.328-24.321 12.333-34.5"/>
    <path d="m115.1 93.276c0.69368 10.133-9.0648 20.162-40.833 20.167"/>
    <path d="m101.76 88.61c-1.4662 8.9293-5.1052 15.386-13 17"/>
    <path d="m83.762 84.276c6.0815 20.025-8.1319 28.333-23.167 36.167 4.7667-8.3269 8.2128-16.843 8.3333-25.833-5.6111 11.444-11.778 18.667-18.5 21.667 2.8163-6.6376 8.4401-14.895 6-18.5"/>
    <path d="m45.595 98.943c-5.6395-20.491 7.6012-30.804 30.333-36"/>
    <path d="m99.762 47.276c11.328-2.6262 19.687 2.1715 27.5 8.3334"/>
    <circle cx="138.76" cy="125.11" r="18.058"/>
    <circle cx="100.1" cy="125.94" r="18.058"/>
   </g>
   <ellipse cx="136.1" cy="127.11" rx="2.0417" ry="5.375" fill-rule="evenodd" stroke-linecap="round" stroke-linejoin="bevel" stroke-width="3.333"/>
   <ellipse cx="100.1" cy="126.94" rx="2.0417" ry="5.375" fill-rule="evenodd" stroke-linecap="round" stroke-linejoin="bevel" stroke-width="3.333"/>
   <g fill="none" stroke-linecap="round" stroke-linejoin="bevel" stroke-width="3.333">
    <path d="m81.428 126.11-33.667 0.33333"/>
    <path d="m99.762 173.23c5.5688 1.8342 10.621 2.123 16.167 1.0468"/>
    <path d="m114.76 151.61c2.1921 0.55271 3.8783 1.747 8.3333 2.1667 5.0306 0.0293 11.144-0.95326 11.667-6-1.4435-9.2623-13.046-7.1434-19.5-6.5"/>
    <path d="m62.512 198.78c-0.0078 3.0811 1.8068 7.3642 5.1667 12.667"/>
    <path d="m47.262 146.28c0.47007-5.4081-0.76951-17.859-11.5-16"/>
   </g>
   <g>
    <ellipse transform="rotate(-31.008)" cx="-36.301" cy="144.37" rx="3.0833" ry="7.4167" fill-rule="evenodd" stroke-linecap="round" stroke-linejoin="bevel" stroke-width="3.333"/>
    <circle cx="47.762" cy="156.05" r="1.375" fill-rule="evenodd" stroke-linecap="round" stroke-linejoin="bevel" stroke-width="3.333"/>
    <path d="m99.598 40.263c-0.52375 0.01515-0.88366 0.03494-1.4062 0.06445-0.4851 0.03111-1.2035 0.08932-1.779 0.15669-4.8114 0.52405-9.4879 1.9747-13.863 4.0227-2.3974 1.0715-4.7409 2.2654-7.001 3.6011-1.6216 0.87103-3.4587 0.13767-5.1526-0.04609-2.5024-0.32917-5.0732-0.27024-7.5308 0.33252-0.17648 0.04874-0.7048 0.18367-1.0117 0.28855-0.93929 0.30089-1.8524 0.69213-2.7017 1.1953 2.7678-0.02535 5.5396-0.22037 8.3057-0.07031 1.0746 0.03901 2.0756 0.582 2.7041 1.4517 0.74376 0.75774 0.90064 1.9659 0.35303 2.8799-0.38781 0.73907-0.81214 1.4592-1.2158 2.1899-4.8104 0.08783-9.6559-0.05538-14.415 0.7779-6.4315 1.0432-12.779 3.5455-17.627 7.9927-0.61894 0.56646-1.1701 1.1213-1.702 1.6942-3.3637 3.6553-5.6616 8.2074-7.0058 12.967-1.2435 4.7014-1.2191 9.6292-0.85241 14.445 0.3539 3.9859 1.1962 7.9239 2.452 11.722 0.26288 0.77878 0.59725 1.7357 0.92397 2.571 1.4079 3.7173 3.2938 7.2267 5.3016 10.649 2.2639-0.0718 4.6246-0.0969 6.7264 0.87527 1.686 0.71617 3.0734 1.9471 4.3786 3.2028 4.1797-0.10694 8.3594-0.21387 12.539-0.32079-1.1199-0.84327-1.8014-2.1027-2.6602-3.1831 1.0697-2.2602 2.1523-4.5144 3.2183-6.7764-2.3473 2.3193-4.8878 4.5173-7.883 5.9583-0.66126 0.35253-1.3226 0.7048-1.9841 1.0568-1.3127-1.3505-2.6228-2.7034-3.9331-4.0562 1.9222-3.9788 4.0157-7.881 5.7143-11.963 0.65525-1.5727 1.142-3.2859 0.8395-5.0005-0.15452-1.2641-0.1117-2.7489 0.93368-3.6449 0.89043-0.95466 2.4306-1.2376 3.5428-0.50404 1.8152 1.0691 2.5665 3.2799 2.4805 5.2962-0.01585 1.1242-0.2084 2.24-0.49272 3.3258 1.9153-2.595 3.4577-5.442 5.0318-8.2503 0.51701-0.94726 0.99797-1.9132 1.4838-2.8767 0.81382-0.16815 1.6292-0.06639 2.4258 0.13769 1.2705 0.27997 2.537 0.57776 3.8057 0.86573-0.30328 3.3673-0.62634 6.7435-1.4023 10.041-0.66962 3.001-1.5263 5.9674-2.6802 8.8199 2.7037-1.7153 5.2943-3.6385 7.5542-5.915 0.19413-0.19414 0.59348-0.61505 0.85694-0.90381 1.9585-2.2011 3.6731-4.7498 4.3733-7.6455 0.62857-3.2037 0.56464-6.5305 0.0094-9.7402-0.28227-1.6767-1.0518-3.4115-0.51797-5.1143 0.39908-1.2264 1.7575-1.7778 2.9629-1.7197 1.2193-0.09445 2.4706 0.54354 2.9704 1.6858 0.7298 1.6223 1.0309 3.4004 1.3756 5.1354 0.95614 5.2878 0.48878 10.921-1.8942 15.784 0.32447-0.32561 0.82369-0.75273 1.2924-1.0147 1.1417-0.69984 2.5228-0.79752 3.6578-1.5206 1.7542-0.95668 3.3482-2.3036 4.2665-4.109 0.62708-1.0945 1.143-2.2493 1.5986-3.4245 0.09397-0.2607 0.29198-0.79273 0.41308-1.1616 0.70286-1.9641 0.8506-4.1121 1.7856-5.9912 0.93144-1.474 3.1347-1.5518 4.4443-0.54785 1.1349 0.80315 1.6759 2.2886 1.3678 3.6405-0.88692 4.4798-2.2502 9.0071-5.0138 12.713-0.66288 0.88257-1.4051 1.7054-2.2222 2.4478 1.9355-0.25594 3.8813-0.0321 5.82 0.01 1.0608-0.0437 1.8648-0.85798 2.7389-1.3658 2.3869-1.5867 4.4692-3.8933 5.0788-6.7658 0.45445-1.6953 0.0821-3.6118 1.0414-5.1584 0.65248-0.84531 1.6634-1.5457 2.7612-1.5601 1.0185 0.09188 1.9074 0.73963 2.6309 1.4194 0.28291 0.31196 0.47589 0.70124 0.57276 1.1104 1.1945-2.6199 2.3746-5.3656 2.3394-8.3013 0.0421-2.157-0.53558-4.2807-1.5-6.1992-0.51797-1.1539-1.0283-2.624-0.18604-3.7573 0.92101-1.2093 2.6662-1.9705 4.1192-1.2686 1.7334 0.84775 2.5198 2.7703 3.1345 4.4834 1.0111 2.901 1.4334 6.0245 0.99688 9.0779-0.7427 5.5577-3.4264 10.632-6.4968 15.241-1.0863 1.6075-2.2349 3.1725-3.4367 4.6954 5.2262-1.5961 9.5045-5.8245 11.306-10.967 0.52146-1.5006 1.0691-3.0405 1.1265-4.6411-0.37923-1.2466 0.67053-2.3195 1.587-3.0002 0.95268-0.68142 1.9239-1.3368 2.8837-2.0081 1.0328 1.2708 2.2677 2.4423 2.8089 4.0308 1.0232 2.5739 1.3394 5.4287 0.8101 8.1545-0.24954 1.599-0.61554 3.1803-1.0892 4.7277 2.0921-2.433 3.7443-5.2603 4.8187-8.2848 0.92271-2.9763 1.0074-6.2901-0.0861-9.2325-0.5711-1.4358-1.6929-2.8736-1.321-4.5037 0.34702-1.2575 1.5998-2.0999 2.8228-2.3672 1.4815-0.2878 2.7732 0.81807 3.4878 2.0098 0.89218 1.5073 1.7049 3.1019 2.1203 4.8122 0.40296 2.1316 0.2091 4.3179 0.2112 6.4736 0.0152 1.6474-0.22461 3.296-0.0932 4.9403 0.0933 1.2042 0.9362 2.1748 1.9233 2.7905 0.84415-3.0639 1.6071-6.1625 2.0522-9.312 0.46889-4.3405 0.49897-8.7458-0.0688-13.078-0.50775-3.497-2.0198-6.7859-3.9348-9.729-0.91934-1.3951-2.0648-2.8175-3.1551-3.9525-1.6924-1.8381-3.7286-3.2946-5.7491-4.7418-4.219-3.1058-8.2641-6.4585-12.704-9.2554-3.2849-2.1086-6.7142-4.0059-10.312-5.5278-0.30819-0.12101-0.73135-0.30594-1.0695-0.43508-5.115-2.0409-10.609-3.2065-16.131-3.0512zm8.0684 3.271c2.1922-0.0077 4.432 0.06148 6.5068 0.85033 5.1453 1.7136 9.9448 4.4306 14.144 7.8539 1.1406 0.97753 2.3963 2.2605 2.2345 3.8881-0.17399 1.5656-1.7086 2.8441-3.2927 2.6098-2.0668-0.31547-3.732-1.7107-5.3953-2.872-3.1411-2.19-6.5485-4.0832-10.234-5.1768-2.7837-0.82369-5.7202-0.52863-8.5804-0.52235-2.0456 0.05023-4.091 0.11295-6.1364 0.17176-0.05539-1.3564-0.3583-2.7179-0.19482-4.0737 0.19973-1.2926 1.4019-2.1543 2.6299-2.3571 2.4592-0.46643 4.982-0.31986 7.4725-0.37059 0.28193-4.44e-4 0.56386-9.37e-4 0.8458-0.0014zm-31.436 16.257c1.2712-0.05183 2.5895 0.75664 2.8472 2.0546 0.23399 1.1501 0.18067 2.5242-0.62548 3.4433-0.65601 0.61124-1.6167 0.69982-2.4314 1.0086-4.1661 1.2065-8.3656 2.3679-12.359 4.096-4.6618 1.9945-9.269 4.6258-12.39 8.7261-1.9376 2.5755-3.1936 5.6898-3.3675 8.9226-0.24904 3.0797-0.02664 6.1965 0.69446 9.2022 0.28766 1.3658 0.43219 3.0375-0.66824 4.0954-1.4739 1.4798-4.4289 1.0969-5.2427-0.90963-0.93232-2.1209-1.1428-4.4703-1.387-6.7502-0.22975-3.0698-0.34362-6.1971 0.25863-9.2325 0.9067-4.0136 2.852-7.7817 5.6327-10.818 4.4725-5.0114 10.49-8.3663 16.741-10.644 3.4086-1.2192 6.8829-2.2875 10.432-3.0142 0.61686-0.10521 1.2392-0.19028 1.8662-0.18018zm9.063 45.551c-0.92178 1.5828-2.008 3.0694-3.2329 4.4312 1.4893-0.15497 3.0239-0.068 4.4663-0.53613 0.33924-0.1497 0.7385-0.43224 0.95215-0.6416-0.95275-0.50824-1.7453-1.3781-2.1445-2.3789-0.10319-0.28628-0.06922-0.61192-0.04108-0.87449z" stroke="none" style="paint-order:fill markers stroke"/>
    <path d="m56.2 129.58c-1.4278 0.0103-2.8558 0.017-4.2832 0.0527 1.0808 2.0768 2.054 4.209 2.9312 6.3794 1.3593-2.0538 2.553-4.2133 3.6079-6.438-0.75195 2e-3 -1.5039 4e-3 -2.2559 6e-3z" stroke="none" stroke-linecap="square" style="paint-order:fill markers stroke"/>
   </g>
  </g>
 </g>
</svg>
